HIERARCHY
ROOT Hips
{
	OFFSET 0.000000 0.000000 0.000000
	CHANNELS 6 Xposition Yposition Zposition Zrotation Yrotation Xrotation 
	JOINT LHipJoint
	{
		OFFSET 0.000000 0.000000 0.000000
		CHANNELS 3 Zrotation Yrotation Xrotation
		JOINT LeftUpLeg
		{
			OFFSET 1.363060 -1.794630 0.839290
			CHANNELS 3 Zrotation Yrotation Xrotation
			JOINT LeftLeg
			{
				OFFSET 2.448110 -6.726130 0.000000
				CHANNELS 3 Zrotation Yrotation Xrotation
				JOINT LeftFoot
				{
					OFFSET 2.562200 -7.039590 0.000000
					CHANNELS 3 Zrotation Yrotation Xrotation
					JOINT LeftToeBase
					{
						OFFSET 0.157640 -0.433110 2.322550
						CHANNELS 3 Zrotation Yrotation Xrotation
						End Site
						{
							OFFSET 0.000000 0.000000 0.000000
						}
					}
				}
			}
		}
	}
	JOINT RHipJoint
	{
		OFFSET 0.000000 0.000000 0.000000
		CHANNELS 3 Zrotation Yrotation Xrotation
		JOINT RightUpLeg
		{
			OFFSET -1.305520 -1.794630 0.839290
			CHANNELS 3 Zrotation Yrotation Xrotation
			JOINT RightLeg
			{
				OFFSET -2.542530 -6.985550 0.000000
				CHANNELS 3 Zrotation Yrotation Xrotation
				JOINT RightFoot
				{
					OFFSET -2.568260 -7.056230 0.000000
					CHANNELS 3 Zrotation Yrotation Xrotation
					JOINT RightToeBase
					{
						OFFSET -0.164730 -0.452590 2.363150
						CHANNELS 3 Zrotation Yrotation Xrotation
						End Site
						{
							OFFSET 0.000000 0.000000 0.000000
						}
					}
				}
			}
		}
	}
	JOINT LowerBack
	{
		OFFSET 0.000000 0.000000 0.000000
		CHANNELS 3 Zrotation Yrotation Xrotation
		JOINT Spine
		{
			OFFSET 0.028270 2.035590 -0.193380
			CHANNELS 3 Zrotation Yrotation Xrotation
			JOINT Spine1
			{
				OFFSET 0.056720 2.048850 -0.042750
				CHANNELS 3 Zrotation Yrotation Xrotation
				JOINT Neck
				{
					OFFSET 0.000000 0.000000 0.000000
					CHANNELS 3 Zrotation Yrotation Xrotation
					JOINT Neck1
					{
						OFFSET -0.054170 1.746240 0.172020
						CHANNELS 3 Zrotation Yrotation Xrotation
						JOINT Head
						{
							OFFSET 0.104070 1.761360 -0.123970
							CHANNELS 3 Zrotation Yrotation Xrotation
							End Site
							{
								OFFSET 0.000000 0.000000 0.000000
							}
						}
					}
				}
				JOINT LeftShoulder
				{
					OFFSET 0.000000 0.000000 0.000000
					CHANNELS 3 Zrotation Yrotation Xrotation
					JOINT LeftArm
					{
						OFFSET 3.362410 1.200890 -0.311210
						CHANNELS 3 Zrotation Yrotation Xrotation
						JOINT LeftForeArm
						{
							OFFSET 4.983000 -0.000000 -0.000000
							CHANNELS 3 Zrotation Yrotation Xrotation
							JOINT LeftHand
							{
								OFFSET 3.483560 -0.000000 -0.000000
								CHANNELS 3 Zrotation Yrotation Xrotation
								JOINT LeftFingerBase
								{
									OFFSET 0.000000 0.000000 0.000000
									CHANNELS 3 Zrotation Yrotation Xrotation
									JOINT LeftHandIndex1
									{
										OFFSET 0.715260 -0.000000 -0.000000
										CHANNELS 3 Zrotation Yrotation Xrotation
										End Site
										{
											OFFSET 0.000000 0.000000 0.000000
										}
									}
								}
								JOINT LThumb
								{
									OFFSET 0.000000 0.000000 0.000000
									CHANNELS 3 Zrotation Yrotation Xrotation
									End Site
									{
										OFFSET 0.000000 0.000000 0.000000
									}
								}
							}
						}
					}
				}
				JOINT RightShoulder
				{
					OFFSET 0.000000 0.000000 0.000000
					CHANNELS 3 Zrotation Yrotation Xrotation
					JOINT RightArm
					{
						OFFSET -3.136600 1.374050 -0.404650
						CHANNELS 3 Zrotation Yrotation Xrotation
						JOINT RightForeArm
						{
							OFFSET -5.241900 -0.000000 -0.000000
							CHANNELS 3 Zrotation Yrotation Xrotation
							JOINT RightHand
							{
								OFFSET -3.444170 -0.000000 -0.000000
								CHANNELS 3 Zrotation Yrotation Xrotation
								JOINT RightFingerBase
								{
									OFFSET 0.000000 0.000000 0.000000
									CHANNELS 3 Zrotation Yrotation Xrotation
									JOINT RightHandIndex1
									{
										OFFSET -0.622530 -0.000000 -0.000000
										CHANNELS 3 Zrotation Yrotation Xrotation
										End Site
										{
											OFFSET 0.000000 0.000000 0.000000
										}
									}
								}
								JOINT RThumb
								{
									OFFSET 0.000000 0.000000 0.000000
									CHANNELS 3 Zrotation Yrotation Xrotation
									End Site
									{
										OFFSET 0.000000 0.000000 0.000000
									}
								}
							}
						}
					}
				}
			}
		}
	}
}
MOTION
Frames: 9
Frame Time: 0.008333
0.106169 17.317897 -1.202944 72.494768 78.608019 67.974102 2.460083 -2.263631 -1.978070 -35.548645 7.532201 12.841971 -1.583212 4.730258 10.297081 0.880544 -4.075532 -13.358962 0.081700 -1.843400 -5.073100 -5.319722 2.438583 -4.221880 11.049109 0.510625 -19.651218 -3.161857 -11.201938 28.974794 -0.493688 -3.681932 -14.827057 -0.339900 -3.746600 10.364900 -12.059023 1.152373 10.499635 -0.638331 1.914009 0.486681 -0.133722 0.263340 9.599450 -0.285618 0.774722 -19.769554 5.909837 0.829635 7.960388 -0.531900 0.830100 9.917500 6.060232 -0.457887 0.234966 -86.658415 -15.560113 50.632370 18.274913 -29.890574 -5.333878 -0.450389 0.637921 -1.794466 19.958756 -23.738301 -8.716600 -7.125000 0.000000 0.000000 -5.510900 4.297600 5.106600 -6.144028 0.935452 2.149771 86.527529 -0.448976 39.213714 -22.702924 37.484864 -6.580950 0.845600 -2.494577 -8.661257 -11.987123 -35.040087 6.753200 7.125000 0.000000 0.000000 23.213700 -61.409500 -9.561900 
0.240753 17.295021 -1.210329 73.614356 78.630722 69.298777 2.501142 -2.248861 -1.954461 -35.619395 7.666871 13.098813 -1.573525 4.722845 10.294705 0.916658 -4.405468 -13.520331 0.113500 -2.172100 -5.981600 -5.432930 2.418426 -4.228111 11.166587 0.499296 -19.497318 -2.826637 -10.318493 26.190536 -0.505641 -3.336776 -14.782117 -0.317600 -3.622600 10.017400 -12.027029 1.017266 10.548072 -0.604628 1.697692 0.394339 -0.039103 0.153841 9.408181 -0.247454 0.752921 -20.026191 6.140411 0.810033 7.998135 -0.418700 0.857700 10.027500 6.057290 -0.454973 0.210169 -86.655909 -15.478142 50.830729 18.283028 -29.889486 -5.334700 -0.457930 0.650529 -1.894970 20.407237 -24.120214 -9.058900 -7.125000 0.000000 0.000000 -5.271000 3.812400 4.930100 -6.167559 1.001769 2.144022 86.457664 -0.720369 38.976477 -22.798655 37.548047 -6.622198 0.856319 -2.486595 -8.678091 -11.871756 -35.024669 6.693900 7.125000 0.000000 0.000000 23.316500 -61.376000 -9.588300 
0.379542 17.274095 -1.216382 74.514594 78.538897 70.466455 2.537387 -2.238935 -1.969955 -35.733670 7.915367 13.336657 -1.565742 4.679765 10.182315 0.954390 -4.831265 -13.633090 0.135600 -2.373700 -6.539600 -5.557938 2.416589 -4.274454 11.176956 0.602276 -19.315845 -2.541482 -9.425123 23.438315 -0.515560 -2.885681 -14.772407 -0.275500 -3.376300 9.328200 -12.286664 0.844287 9.936598 -0.518247 1.588274 0.510744 0.478895 -0.027094 10.085753 -0.471200 0.756435 -20.395272 6.324008 0.901810 7.828208 -0.281100 0.890000 9.961900 6.046605 -0.410256 0.225049 -86.938291 -15.976042 50.896397 18.274208 -29.917887 -5.336123 -0.465904 0.650322 -1.966806 20.625105 -24.204735 -9.192700 -7.125000 0.000000 0.000000 -5.141900 3.686500 4.820500 -6.123291 0.913710 2.145269 85.984686 -0.348825 38.940387 -22.728102 37.447177 -6.588758 0.834140 -2.458575 -8.727123 -11.978774 -34.719089 6.691000 7.125000 0.000000 0.000000 22.986200 -61.149900 -9.320500 
0.516588 17.249066 -1.216792 75.673564 78.282696 71.896208 2.579082 -2.234340 -1.966983 -35.998416 8.160950 13.459272 -1.552163 4.682457 10.177259 1.001761 -5.370011 -13.785846 0.138300 -2.397000 -6.604300 -5.615958 2.402956 -4.252392 10.865923 1.047453 -19.188095 -2.326958 -8.585667 20.938147 -0.526786 -2.332221 -14.856692 -0.149800 -2.494400 6.874000 -12.454088 0.831657 9.811634 -0.539526 1.556891 0.435051 0.504715 -0.034518 9.921831 -0.516924 0.581261 -20.314164 6.619702 0.680196 7.707077 -0.135600 0.819800 9.882900 6.029936 -0.404761 0.211974 -86.875668 -15.874591 51.367752 18.356851 -30.011481 -5.372726 -0.462622 0.650796 -2.029807 20.537624 -24.226375 -9.157600 -7.125000 0.000000 0.000000 -5.200200 3.678500 4.876300 -6.168992 0.964615 2.150807 86.098971 -0.672860 38.503384 -22.615686 37.333037 -6.539940 0.833443 -2.461087 -8.772633 -12.001806 -34.528090 6.666000 7.125000 0.000000 0.000000 22.797800 -60.978900 -9.146500 
0.655172 17.219934 -1.217100 77.104666 78.159365 73.571468 2.618280 -2.220161 -1.959225 -36.238997 8.137451 13.705685 -1.544879 4.709078 10.247179 1.052464 -5.743037 -14.110403 0.157000 -2.553000 -7.036500 -5.669333 2.403382 -4.239520 10.616923 1.483445 -18.999607 -2.163432 -7.794399 18.608494 -0.527706 -1.627576 -14.876739 -0.047100 -1.400600 3.851600 -12.501850 0.786380 9.721308 -0.546732 1.484437 0.370807 0.481497 -0.057091 9.794752 -0.380726 0.453543 -20.302292 6.810832 0.466169 7.604091 -0.088200 0.754500 9.831900 6.023936 -0.405137 0.201955 -86.812768 -15.821368 51.736085 18.341570 -29.991065 -5.361881 -0.461416 0.659769 -1.874164 20.657387 -24.478290 -9.302400 -7.125000 0.000000 0.000000 -5.153700 3.389000 4.860100 -6.202756 1.007525 2.156026 86.301435 -0.969176 37.975086 -22.500613 37.225866 -6.497959 0.831134 -2.472398 -8.808172 -12.079138 -34.542559 6.705800 7.125000 0.000000 0.000000 22.724100 -60.998600 -9.125800 
0.798270 17.190596 -1.223254 78.223937 78.210868 74.921147 2.656599 -2.199230 -1.946255 -36.329011 8.070601 14.062492 -1.541068 4.685683 10.202278 1.103666 -6.165730 -14.384736 0.147300 -2.473400 -6.815800 -5.742570 2.401693 -4.236875 10.618717 1.681485 -18.854906 -2.048278 -7.065612 16.468863 -0.489263 -0.945104 -14.292594 -0.042900 -1.337400 3.677600 -12.286025 0.737466 9.641661 -0.537318 1.408618 0.311646 0.386528 -0.068541 9.673756 -0.186807 0.366508 -20.298133 6.981051 0.287642 7.465291 -0.057500 0.703800 9.763100 6.024278 -0.409746 0.194677 -86.803332 -15.756680 52.073778 18.314073 -29.953620 -5.344378 -0.460484 0.665289 -1.788461 20.720767 -24.631117 -9.386200 -7.125000 0.000000 0.000000 -5.131700 3.214600 4.855700 -6.224382 1.048971 2.164228 86.472255 -1.295791 37.438312 -22.498925 37.234600 -6.511957 0.836717 -2.484956 -8.864277 -12.103493 -34.783547 6.762200 7.125000 0.000000 0.000000 22.892200 -61.210600 -9.313100 
0.940547 17.160540 -1.230948 79.083773 77.977723 76.005415 2.683000 -2.190420 -1.946368 -36.640661 8.214912 14.294079 -1.528818 4.681144 10.178541 1.147746 -6.770819 -14.486257 0.115700 -2.192700 -6.038400 -5.760255 2.391692 -4.227413 10.289091 1.698257 -18.889454 -1.983793 -6.437975 14.717032 -0.427375 -0.241028 -13.300282 -0.136700 -2.383300 6.566200 -12.388735 0.692202 9.499901 -0.542404 1.348880 0.271148 0.431143 -0.097784 9.608573 -0.234296 0.293629 -20.187493 7.286138 0.205188 7.219359 0.104000 0.686600 9.600000 6.006099 -0.406835 0.192926 -86.897532 -15.708713 52.192086 18.291741 -29.927685 -5.331908 -0.453546 0.666223 -1.664802 20.527955 -24.633339 -9.292400 -7.125000 0.000000 0.000000 -5.252600 3.246900 4.968000 -6.248811 1.079371 2.178414 86.526081 -1.578655 37.001023 -22.552283 37.287135 -6.543096 0.850514 -2.485891 -8.893944 -11.912736 -34.925872 6.689900 7.125000 0.000000 0.000000 23.203900 -61.294100 -9.493900 
1.085799 17.130690 -1.236179 79.486648 77.632206 76.581534 2.695295 -2.188079 -1.958722 -37.054623 8.374492 14.539949 -1.515745 4.731809 10.294418 1.184521 -7.143473 -14.691326 0.117200 -2.207000 -6.078200 -5.751429 2.379419 -4.213454 9.864786 1.709239 -18.990940 -1.952554 -5.950793 13.395631 -0.374017 0.728568 -12.712526 -0.266600 -3.321700 9.175700 -12.662710 0.642762 9.338713 -0.533129 1.297544 0.262706 0.634290 -0.157238 9.666740 -0.474972 0.241421 -20.227005 7.629795 0.222498 7.000239 0.334700 0.706300 9.481400 5.985190 -0.394203 0.191024 -87.162044 -15.722877 52.046692 18.219112 -29.847210 -5.297253 -0.450742 0.672028 -1.321759 20.617916 -24.727374 -9.368700 -7.125000 0.000000 0.000000 -5.207500 3.130500 4.936000 -6.272864 1.097762 2.190224 86.506229 -1.735822 36.489768 -22.473902 37.194882 -6.506930 0.840067 -2.472910 -8.520584 -11.767065 -34.458053 6.532300 7.125000 0.000000 0.000000 22.960200 -60.854100 -9.147300 
1.233615 17.099814 -1.236487 79.864355 77.460208 77.190277 2.698090 -2.182014 -1.975201 -37.256641 8.425504 14.752970 -1.496530 4.823487 10.535606 1.231052 -7.497125 -14.977394 0.119500 -2.229000 -6.138900 -5.745872 2.353096 -4.167206 9.630593 1.875457 -19.230571 -1.941015 -5.623448 12.494167 -0.345184 1.833135 -12.836361 -0.258500 -3.270900 9.033900 -12.771342 0.612912 9.100822 -0.503716 1.281105 0.256231 0.784963 -0.198853 9.788791 -0.441671 0.188895 -20.483391 7.790945 0.159214 6.943574 0.398800 0.699000 9.507300 5.989029 -0.380076 0.183784 -87.373192 -15.763484 52.123832 18.160847 -29.786011 -5.267951 -0.454236 0.672192 -1.266258 20.814555 -24.664337 -9.443300 -7.125000 0.000000 0.000000 -5.078600 3.160600 4.810100 -6.284769 1.105715 2.190089 86.622660 -1.757834 35.749630 -22.293894 37.016496 -6.439024 0.825581 -2.475074 -8.060398 -11.639249 -34.283620 6.435400 7.125000 0.000000 0.000000 22.944600 -60.671200 -9.040400 
